<svg width="22" height="20" viewBox="0 0 22 20" fill="none" xmlns="http://www.w3.org/2000/svg">
<path fill-rule="evenodd" clip-rule="evenodd" d="M11 17.5C13.4853 17.5 15.5 15.4853 15.5 13C15.5 12.4692 15.4081 11.9598 15.2393 11.487C14.8954 12.0919 14.245 12.5 13.4994 12.5C12.3948 12.5 11.4994 11.6046 11.4994 10.5C11.4994 9.75452 11.9073 9.1043 12.512 8.76033C12.0395 8.59178 11.5304 8.5 11 8.5C8.51472 8.5 6.5 10.5147 6.5 13C6.5 15.4853 8.51472 17.5 11 17.5Z" fill="#194866"/>
<path d="M1.25003 9.79596C6.21917 4.82682 15.0178 4.47186 20.3418 9.79594" stroke="#133D70" stroke-width="2.5" stroke-linecap="round"/>
</svg>
